<?xml version="1.0" encoding="UTF-8"?>
<svg width="1454px" height="1512px" viewBox="0 0 1454 1512" version="1.1" xmlns="http://www.w3.org/2000/svg" xmlns:xlink="http://www.w3.org/1999/xlink">
    <!-- Generator: Sketch 51.3 (57544) - http://www.bohemiancoding.com/sketch -->
    <title>orbiter</title>
    <desc>Created with Sketch.</desc>
    <defs></defs>
    <g id="Page-1" stroke="none" stroke-width="1" fill="none" fill-rule="evenodd">
        <g id="gravity-mark-inverse" transform="translate(-471.000000, -418.000000)" fill="#576CB5">
            <g id="orbiter" transform="translate(471.449875, 418.358396)">
                <path d="M940.832576,140.91384 C934.812461,158.569038 930.612567,177.002632 928.443139,196.014897 C872.82995,180.367822 814.158184,171.996509 753.526198,171.996509 C423.524994,171.996509 151.591182,419.979009 114.809343,739.310705 C106.575261,737.735905 98.0738352,736.911454 89.3793562,736.911454 C78.502666,736.911454 67.9280979,738.201696 57.8010974,740.637106 C94.23863,389.463546 391.820614,115.617414 753.526198,115.617414 C818.403607,115.617414 881.218039,124.427562 940.832581,140.913841 Z M1360.7036,466.680823 C1419.42605,568.799156 1453,687.143114 1453,813.308707 C1453,925.707294 1426.35337,1031.89809 1379.01746,1125.93891 C1365.16148,1112.89466 1349.34724,1101.89779 1332.06098,1093.43331 C1373.32777,1008.79714 1396.47686,913.749412 1396.47686,813.308707 C1396.47686,694.876158 1364.29164,583.941714 1308.16962,488.732798 C1326.55676,483.011519 1344.13624,475.596118 1360.7036,466.680829 Z M80.6219792,1004.43179 C83.5170786,1004.61774 86.4371639,1004.71215 89.3793562,1004.71215 C106.166598,1004.71215 122.234146,1001.63863 137.047253,996.024967 C215.923161,1261.19671 462.078649,1454.62091 753.526198,1454.62091 C874.759352,1454.62091 988.155611,1421.15267 1084.93489,1362.97391 C1094.90023,1379.34065 1107.27091,1394.08894 1121.5576,1406.73068 C1014.65062,1472.83547 888.556696,1511 753.526198,1511 C433.65861,1511 163.938367,1296.84084 80.6219829,1004.43181 Z" id="Combined-Shape"></path>
                <ellipse id="Oval" cx="1204.85391" cy="232.23153" rx="232.20096" ry="232.23153"></ellipse>
                <ellipse id="Oval" cx="756.397119" cy="814.305409" rx="375.707133" ry="375.756596"></ellipse>
                <ellipse id="Oval" cx="1237.74074" cy="1251.85752" rx="143.506173" ry="143.525066"></ellipse>
                <ellipse id="Oval" cx="88.6947874" cy="870.120712" rx="88.6947874" ry="88.7064644"></ellipse>
            </g>
        </g>
    </g>
</svg>