<svg height="48" viewBox="0 0 48 48" width="48" xmlns="http://www.w3.org/2000/svg"><path d="m280.500152 188c-9.097429 0-16.499871-7.4025-16.499871-16.5s7.402442-16.5 16.499871-16.5 16.499871 7.4025 16.499871 16.5-7.402442 16.5-16.499871 16.5m0-36c-10.769916 0-19.499847 8.73-19.499847 19.5 0 4.845 1.777486 9.267 4.700963 12.678l-13.261396 13.2615c-.586496.5865-.586496 1.5345 0 2.121.292497.2925.676494.4395 1.060491.4395s.767994-.147 1.060492-.4395l13.261396-13.2615c3.410974 2.9235 7.832939 4.701 12.677901 4.701 10.769916 0 19.499848-8.73 19.499848-19.5s-8.729932-19.5-19.499848-19.5" fill="#758197" fill-rule="evenodd" transform="translate(-252 -152)"/></svg>