<svg height="49" viewBox="0 0 49 49" width="49" xmlns="http://www.w3.org/2000/svg"><path d="m382.980578 325.378312 15.203188-15.203187c2.098937-2.098937 2.098937-5.501313 0-7.60025-1.050813-1.050812-2.426813-1.574875-3.800125-1.574875-1.376 0-2.752.524063-3.802813 1.574875l-15.2005 15.203187-15.203187-15.203187c-1.050813-1.050812-2.426813-1.574875-3.802813-1.574875-1.373312 0-2.749312.524063-3.800125 1.574875-2.098937 2.098937-2.098937 5.501313 0 7.60025l15.203188 15.203187-15.203188 15.203188c-2.098937 2.098937-2.098937 5.501312 0 7.60025 1.050813 1.050812 2.426813 1.574875 3.802813 1.574875 1.373312 0 2.749312-.524063 3.800125-1.574875l15.203187-15.203188 15.2005 15.203188c1.050813 1.050812 2.426813 1.574875 3.802813 1.574875 1.373312 0 2.749312-.524063 3.800125-1.574875 2.098937-2.098938 2.098937-5.501313 0-7.60025z" fill="#d95565" fill-rule="evenodd" transform="translate(-351 -301)"/></svg>