<?xml version="1.0" encoding="UTF-8"?>
<svg width="49px" height="43px" viewBox="0 0 49 43" version="1.1" xmlns="http://www.w3.org/2000/svg" xmlns:xlink="http://www.w3.org/1999/xlink">
    <!-- Generator: Sketch 51.3 (57544) - http://www.bohemiancoding.com/sketch -->
    <title>ico-check-green</title>
    <desc>Created with Sketch.</desc>
    <defs></defs>
    <g id="Page-1" stroke="none" stroke-width="1" fill="none" fill-rule="evenodd">
        <g id="ico-check-green" fill="#FFFFFF">
            <path d="M47.030923,0.704424 C45.257642,-0.544794 42.612954,-0.079638 41.367798,1.681456 L19.405923,32.798174 L6.501392,23.117237 C5.792486,22.587081 4.951548,22.308799 4.069986,22.308799 C2.776079,22.308799 1.587798,22.899893 0.811861,23.933799 C0.161861,24.799112 -0.112358,25.869581 0.042017,26.944112 C0.194361,28.016612 0.759048,28.969268 1.624361,29.619268 L17.874361,41.806768 C18.739673,42.456768 19.858892,42.741143 20.945611,42.568487 C22.022173,42.397862 23.003267,41.790518 23.632954,40.898799 L48.005923,6.367549 C49.297798,4.539424 48.859048,1.998331 47.030923,0.704424" id="Shape"></path>
        </g>
    </g>
</svg>