<svg height="43" viewBox="0 0 49 43" width="49" xmlns="http://www.w3.org/2000/svg"><path d="m348.030923 303.704424c-1.773281-1.249218-4.417969-.784062-5.663125.977032l-21.961875 31.116718-12.904531-9.680937c-.708906-.530156-1.549844-.808438-2.431406-.808438-1.293907 0-2.482188.591094-3.258125 1.625-.65.865313-.924219 1.935782-.769844 3.010313.152344 1.0725.717031 2.025156 1.582344 2.675156l16.25 12.1875c.865312.65 1.984531.934375 3.07125.761719 1.076562-.170625 2.057656-.777969 2.687343-1.669688l24.372969-34.53125c1.291875-1.828125.853125-4.369218-.975-5.663125" fill="#8ccc6c" fill-rule="evenodd" transform="translate(-301 -303)"/></svg>