<svg height="30" viewBox="0 0 48 30" width="48" xmlns="http://www.w3.org/2000/svg"><path d="m170.053117 222.015546 19.570081-18.72698c.612435-.58495.948231-1.358593.948231-2.180268 0-.81996-.335796-1.593603-.948231-2.178553-.626354-.600389-1.461492-.929745-2.352307-.929745-.892554 0-1.727693.329356-2.354047.929745l-23.035906 22.04284c-.290558.277894-.452367.650135-.452367 1.042961 0 .392825.161809.765066.452367 1.042961l23.035906 22.04284c1.247489 1.197346 3.448427 1.199062 4.706354 0 .612435-.58495.948231-1.358594.948231-2.178553 0-.821675-.335796-1.595319-.948231-2.180269z" fill-rule="evenodd" transform="matrix(0 1 -1 0 246 -161)"/></svg>