<svg height="42" viewBox="0 0 48 42" width="48" xmlns="http://www.w3.org/2000/svg"><path d="m347.583818 208.111321c-1.718719-1.210781-4.282031-.759937-5.488875.946969l-21.286125 30.159281-12.507469-9.383062c-.687094-.513844-1.502156-.783563-2.356594-.783563-1.254093 0-2.405812.572906-3.157875 1.575-.63.838688-.895781 1.876219-.746156 2.917688.147656 1.0395.694969 1.962843 1.533656 2.592843l15.75 11.8125c.838688.63 1.923469.905625 2.97675.738282 1.043438-.165375 1.994344-.754032 2.604657-1.618313l23.623031-33.46875c1.252125-1.771875.826875-4.234781-.945-5.488875" fill="#fff" fill-rule="evenodd" transform="translate(-302 -207)"/></svg>